<svg width="136.000000" height="11.000000" viewBox="0 0 136 11" fill="none" xmlns="http://www.w3.org/2000/svg" xmlns:xlink="http://www.w3.org/1999/xlink">
	<desc>
			Created with Pixso.
	</desc>
	<defs/>
	<path id="Where in the world?" d="M50.64 0.3C50.64 0.89 50.12 1.37 49.49 1.37C48.86 1.37 48.35 0.89 48.35 0.3C48.35 -0.29 48.86 -0.77 49.49 -0.77C50.12 -0.77 50.64 -0.29 50.64 0.3ZM132.57 6.94L130.69 6.94L130.69 6.77C130.69 5.03 131.16 4.5 131.99 3.98C132.61 3.59 133.08 3.16 133.08 2.5C133.08 1.81 132.54 1.36 131.87 1.36C131.22 1.36 130.61 1.8 130.58 2.61L128.56 2.61C128.6 0.62 130.07 -0.33 131.88 -0.33C133.85 -0.33 135.25 0.69 135.25 2.43C135.25 3.6 134.64 4.33 133.71 4.88C132.93 5.35 132.58 5.8 132.57 6.77L132.57 6.94ZM4.27 10L2.17 10L-0.74 -0.19L1.61 -0.19L3.29 6.89L3.38 6.89L5.24 -0.19L7.25 -0.19L9.11 6.9L9.2 6.9L10.88 -0.19L13.23 -0.19L10.32 10L8.22 10L6.28 3.34L6.2 3.34L4.27 10ZM17.93 4.02C17.07 4.02 16.46 4.59 16.46 5.58L16.46 10L14.34 10L14.34 -0.19L16.4 -0.19L16.4 3.71L16.49 3.71C16.84 2.81 17.61 2.26 18.77 2.26C20.36 2.26 21.42 3.34 21.41 5.13L21.41 10L19.29 10L19.29 5.51C19.3 4.57 18.79 4.02 17.93 4.02ZM73.37 4.02C72.51 4.02 71.91 4.59 71.9 5.58L71.9 10L69.78 10L69.78 -0.19L71.84 -0.19L71.84 3.71L71.93 3.71C72.28 2.81 73.06 2.26 74.21 2.26C75.81 2.26 76.86 3.34 76.86 5.13L76.86 10L74.74 10L74.74 5.51C74.74 4.57 74.23 4.02 73.37 4.02ZM116.17 -0.19L118.28 -0.19L118.28 10L116.17 10L116.17 -0.19ZM124.96 8.77C124.66 9.41 124.02 10.12 122.79 10.12C121.05 10.12 119.69 8.74 119.69 6.19C119.69 3.56 121.11 2.26 122.78 2.26C124.06 2.26 124.67 3.02 124.96 3.64L125.02 3.64L125.02 -0.19L127.13 -0.19L127.13 10L125.05 10L125.05 8.77L124.96 8.77ZM66.81 2.36L68.25 2.36L68.25 3.95L66.81 3.95L66.81 7.65C66.81 8.23 67.11 8.4 67.53 8.4C67.73 8.4 67.95 8.34 68.06 8.32L68.39 9.9C68.18 9.97 67.79 10.08 67.24 10.1C65.7 10.16 64.69 9.42 64.7 7.93L64.7 3.95L63.65 3.95L63.65 2.36L64.7 2.36L64.7 0.53L66.81 0.53L66.81 2.36ZM33.57 10L31.45 10L31.45 2.36L33.5 2.36L33.5 3.69L33.58 3.69C33.86 2.75 34.56 2.25 35.42 2.25C35.63 2.25 35.9 2.28 36.08 2.33L36.08 4.2C35.89 4.14 35.48 4.09 35.19 4.09C34.25 4.09 33.57 4.73 33.57 5.67L33.57 10ZM112.56 10L110.44 10L110.44 2.36L112.5 2.36L112.5 3.69L112.58 3.69C112.86 2.75 113.56 2.25 114.41 2.25C114.63 2.25 114.89 2.28 115.08 2.33L115.08 4.2C114.88 4.14 114.48 4.09 114.18 4.09C113.25 4.09 112.56 4.73 112.56 5.67L112.56 10ZM30.02 7.81C29.73 9.23 28.45 10.15 26.56 10.15C24.21 10.15 22.77 8.63 22.77 6.21C22.77 3.86 24.23 2.26 26.48 2.26C28.5 2.26 30.07 3.54 30.07 6.14L30.07 6.72L24.87 6.72L24.87 6.72C24.87 7.86 25.54 8.56 26.6 8.56C27.3 8.56 27.85 8.26 28.06 7.68L30.02 7.81ZM43.75 7.81C43.46 9.23 42.18 10.15 40.29 10.15C37.94 10.15 36.51 8.63 36.51 6.21C36.51 3.86 37.96 2.26 40.21 2.26C42.23 2.26 43.8 3.54 43.8 6.14L43.8 6.72L38.6 6.72L38.6 6.72C38.6 7.86 39.27 8.56 40.33 8.56C41.03 8.56 41.58 8.26 41.8 7.68L43.75 7.81ZM55.8 4.02C54.95 4.02 54.36 4.59 54.35 5.58L54.35 10L52.23 10L52.23 2.36L54.25 2.36L54.25 3.71L54.34 3.71C54.69 2.82 55.51 2.26 56.64 2.26C58.23 2.26 59.28 3.35 59.28 5.13L59.28 10L57.16 10L57.16 5.51C57.16 4.58 56.65 4.02 55.8 4.02ZM85.47 7.81C85.17 9.23 83.89 10.15 82 10.15C79.65 10.15 78.22 8.63 78.22 6.21C78.22 3.86 79.67 2.26 81.92 2.26C83.94 2.26 85.51 3.54 85.51 6.14L85.51 6.72L80.31 6.72L80.31 6.72C80.31 7.86 80.98 8.56 82.04 8.56C82.75 8.56 83.29 8.26 83.51 7.68L85.47 7.81ZM109.06 6.21C109.06 8.56 107.62 10.15 105.3 10.15C102.99 10.15 101.54 8.56 101.54 6.21C101.54 3.84 102.99 2.26 105.3 2.26C107.62 2.26 109.06 3.84 109.06 6.21ZM50.55 10L48.43 10L48.43 2.36L50.55 2.36L50.55 10ZM93.88 10L91.65 10L89.57 2.36L91.71 2.36L92.89 7.49L92.96 7.49L94.2 2.36L96.3 2.36L97.55 7.46L97.62 7.46L98.78 2.36L100.92 2.36L98.84 10L96.6 10L95.29 5.19L95.2 5.19L93.88 10ZM26.51 3.84C25.57 3.84 24.91 4.54 24.87 5.4L28.08 5.4C28.07 4.5 27.43 3.84 26.51 3.84ZM40.24 3.84C39.3 3.84 38.65 4.54 38.6 5.4L41.81 5.4C41.8 4.5 41.16 3.84 40.24 3.84ZM81.96 3.84C81.02 3.84 80.36 4.54 80.31 5.4L83.52 5.4C83.51 4.5 82.88 3.84 81.96 3.84ZM103.7 6.19C103.7 7.52 104.24 8.5 105.31 8.5C106.36 8.5 106.91 7.52 106.91 6.19C106.91 4.86 106.36 3.87 105.31 3.87C104.24 3.87 103.7 4.86 103.7 6.19ZM121.85 6.18C121.85 7.51 122.42 8.43 123.46 8.43C124.48 8.43 125.07 7.54 125.07 6.18C125.07 4.81 124.49 3.95 123.46 3.95C122.41 3.95 121.85 4.85 121.85 6.18ZM132.86 8.93C132.86 9.59 132.3 10.12 131.67 10.12C131.01 10.12 130.47 9.59 130.47 8.93C130.47 8.28 131.01 7.75 131.67 7.75C132.3 7.75 132.86 8.28 132.86 8.93Z" fill="#FFFFFF" fill-opacity="1.000000" fill-rule="evenodd"/>
</svg>
