<svg width="15.000000" height="14.000000" viewBox="0 0 15 14" fill="none" xmlns="http://www.w3.org/2000/svg" xmlns:xlink="http://www.w3.org/1999/xlink">
	<desc>
			Created with Pixso.
	</desc>
	<defs/>
	<path id="Path" d="M10.55 9.81C6.66 9.81 3.51 6.92 3.51 3.36C3.51 2.02 3.96 0.78 4.73 -0.25C1.69 0.69 -0.5 3.33 -0.5 6.43C-0.5 10.33 2.94 13.5 7.2 13.5C10.59 13.5 13.46 11.49 14.5 8.7C13.37 9.4 12.01 9.81 10.55 9.81Z" fill="#FFFFFF" fill-opacity="1.000000" fill-rule="evenodd"/>
	<path id="Path" d="M3.51 3.36C3.51 2.02 3.96 0.78 4.73 -0.25C1.69 0.69 -0.5 3.33 -0.5 6.43C-0.5 10.33 2.94 13.5 7.2 13.5C10.59 13.5 13.46 11.49 14.5 8.7C13.37 9.4 12.01 9.81 10.55 9.81C6.66 9.81 3.51 6.92 3.51 3.36Z" stroke="#979797" stroke-opacity="0" stroke-width="0.000000"/>
</svg>
