<svg width="233.000000" height="19.000000" viewBox="0 0 233 19" fill="none" xmlns="http://www.w3.org/2000/svg" xmlns:xlink="http://www.w3.org/1999/xlink">
	<desc>
			Created with Pixso.
	</desc>
	<defs/>
	<path id="Where in the world?" d="M87.53 1.38C87.53 2.39 86.64 3.22 85.56 3.22C84.48 3.22 83.6 2.39 83.6 1.38C83.6 0.37 84.48 -0.46 85.56 -0.46C86.64 -0.46 87.53 0.37 87.53 1.38ZM227.98 12.76L224.76 12.76L224.76 12.47C224.76 9.49 225.56 8.58 226.99 7.68C228.04 7.01 228.85 6.27 228.85 5.15C228.85 3.97 227.93 3.2 226.77 3.2C225.66 3.2 224.63 3.94 224.57 5.33L221.1 5.33C221.18 1.92 223.7 0.3 226.79 0.3C230.18 0.3 232.58 2.04 232.58 5.02C232.58 7.03 231.54 8.28 229.94 9.22C228.6 10.03 228 10.81 227.98 12.47L227.98 12.76ZM8.04 18L4.44 18L-0.55 0.54L3.48 0.54L6.37 12.67L6.51 12.67L9.7 0.54L13.15 0.54L16.33 12.69L16.49 12.69L19.37 0.54L23.41 0.54L18.41 18L14.82 18L11.49 6.58L11.35 6.58L8.04 18ZM31.46 7.75C29.97 7.75 28.94 8.74 28.94 10.42L28.94 18L25.3 18L25.3 0.54L28.83 0.54L28.83 7.21L28.99 7.21C29.58 5.67 30.91 4.74 32.9 4.74C35.63 4.74 37.43 6.59 37.43 9.66L37.43 18L33.79 18L33.79 10.31C33.8 8.7 32.93 7.75 31.46 7.75ZM126.5 7.75C125.02 7.75 123.99 8.74 123.98 10.42L123.98 18L120.35 18L120.35 0.54L123.88 0.54L123.88 7.21L124.03 7.21C124.63 5.67 125.96 4.74 127.94 4.74C130.67 4.74 132.48 6.59 132.47 9.66L132.47 18L128.84 18L128.84 10.31C128.85 8.7 127.98 7.75 126.5 7.75ZM199.86 0.54L203.49 0.54L203.49 18L199.86 18L199.86 0.54ZM214.93 15.9C214.43 16.99 213.32 18.21 211.21 18.21C208.23 18.21 205.9 15.84 205.9 11.47C205.9 6.97 208.33 4.74 211.2 4.74C213.39 4.74 214.44 6.04 214.93 7.1L215.04 7.1L215.04 0.54L218.66 0.54L218.66 18L215.08 18L215.08 15.9L214.93 15.9ZM115.25 4.91L117.72 4.91L117.72 7.63L115.25 7.63L115.25 13.97C115.25 14.98 115.76 15.25 116.48 15.25C116.82 15.25 117.2 15.16 117.39 15.13L117.95 17.83C117.59 17.95 116.92 18.14 115.98 18.18C113.35 18.28 111.61 17.02 111.63 14.45L111.63 7.63L109.83 7.63L109.83 4.91L111.63 4.91L111.63 1.77L115.25 1.77L115.25 4.91ZM58.26 18L54.63 18L54.63 4.91L58.15 4.91L58.15 7.19L58.29 7.19C58.77 5.57 59.97 4.72 61.43 4.72C61.8 4.72 62.25 4.77 62.58 4.85L62.58 8.06C62.24 7.96 61.54 7.87 61.04 7.87C59.44 7.87 58.26 8.98 58.26 10.59L58.26 18ZM193.68 18L190.05 18L190.05 4.91L193.57 4.91L193.57 7.19L193.7 7.19C194.18 5.57 195.39 4.72 196.85 4.72C197.22 4.72 197.67 4.77 197.99 4.85L197.99 8.06C197.65 7.96 196.96 7.87 196.46 7.87C194.86 7.87 193.68 8.98 193.68 10.59L193.68 18ZM52.19 14.25C51.68 16.68 49.49 18.25 46.25 18.25C42.22 18.25 39.76 15.66 39.76 11.51C39.76 7.47 42.25 4.74 46.11 4.74C49.57 4.74 52.26 6.93 52.26 11.38L52.26 12.38L43.34 12.38L43.34 12.39C43.34 14.34 44.5 15.54 46.32 15.54C47.52 15.54 48.46 15.02 48.83 14.02L52.19 14.25ZM75.73 14.25C75.22 16.68 73.03 18.25 69.79 18.25C65.76 18.25 63.3 15.66 63.3 11.51C63.3 7.47 65.79 4.74 69.65 4.74C73.11 4.74 75.8 6.93 75.8 11.38L75.8 12.38L66.88 12.38L66.88 12.39C66.88 14.34 68.04 15.54 69.86 15.54C71.06 15.54 72 15.02 72.37 14.02L75.73 14.25ZM96.37 7.75C94.91 7.75 93.9 8.74 93.9 10.42L93.9 18L90.26 18L90.26 4.91L93.73 4.91L93.73 7.21L93.88 7.21C94.46 5.69 95.87 4.74 97.82 4.74C100.54 4.74 102.33 6.61 102.33 9.66L102.33 18L98.7 18L98.7 10.31C98.71 8.71 97.83 7.75 96.37 7.75ZM147.23 14.25C146.72 16.68 144.54 18.25 141.3 18.25C137.27 18.25 134.8 15.66 134.8 11.51C134.8 7.47 137.3 4.74 141.16 4.74C144.61 4.74 147.31 6.93 147.31 11.38L147.31 12.38L138.39 12.38L138.39 12.39C138.39 14.34 139.54 15.54 141.36 15.54C142.57 15.54 143.5 15.02 143.87 14.02L147.23 14.25ZM187.68 11.5C187.68 15.53 185.21 18.25 181.24 18.25C177.27 18.25 174.79 15.53 174.79 11.5C174.79 7.44 177.27 4.74 181.24 4.74C185.21 4.74 187.68 7.44 187.68 11.5ZM87.37 18L83.73 18L83.73 4.91L87.37 4.91L87.37 18ZM161.66 18L157.83 18L154.26 4.91L157.94 4.91L159.96 13.7L160.08 13.7L162.2 4.91L165.8 4.91L167.95 13.65L168.06 13.65L170.05 4.91L173.72 4.91L170.16 18L166.32 18L164.07 9.76L163.91 9.76L161.66 18ZM46.17 7.44C44.56 7.44 43.43 8.64 43.34 10.13L48.85 10.13C48.83 8.57 47.75 7.44 46.17 7.44ZM69.71 7.44C68.1 7.44 66.97 8.64 66.88 10.13L72.39 10.13C72.37 8.57 71.28 7.44 69.71 7.44ZM141.21 7.44C139.6 7.44 138.47 8.64 138.39 10.13L143.89 10.13C143.88 8.57 142.79 7.44 141.21 7.44ZM178.48 11.47C178.48 13.76 179.42 15.44 181.26 15.44C183.05 15.44 183.99 13.76 183.99 11.47C183.99 9.19 183.05 7.5 181.26 7.5C179.42 7.5 178.48 9.19 178.48 11.47ZM209.61 11.45C209.61 13.74 210.58 15.32 212.36 15.32C214.11 15.32 215.12 13.78 215.12 11.45C215.12 9.11 214.13 7.62 212.36 7.62C210.56 7.62 209.61 9.18 209.61 11.45ZM228.48 16.17C228.47 17.3 227.52 18.22 226.43 18.22C225.31 18.22 224.38 17.3 224.39 16.17C224.38 15.05 225.31 14.15 226.43 14.15C227.52 14.15 228.47 15.05 228.48 16.17Z" fill="#FFFFFF" fill-opacity="1.000000" fill-rule="evenodd"/>
</svg>
